<?xml version="1.0" encoding="UTF-8" standalone="no"?>
<!-- Created with Inkscape (http://www.inkscape.org/) -->

<svg
   width="22.173235mm"
   height="23.348341mm"
   viewBox="0 0 22.173235 23.348341"
   version="1.1"
   id="svg1"
   xmlns="http://www.w3.org/2000/svg"
   xmlns:svg="http://www.w3.org/2000/svg">
  <defs
     id="defs1" />
  <g
     id="layer1"
     transform="translate(-71.407051,-119.82579)">
    <g
       style="fill:#e0cbad;fill-opacity:1;stroke:none;stroke-width:0.757213;stroke-dasharray:none"
       transform="matrix(1.31725,0,0,1.31725,-1248.899,-55.87164)"
       id="g101">
      <path
         d="m 1006.615,149.733 c 2.442,1.897 4.725,1.766 7.283,0 -0.407,-3.378 4.03,-10.625 4.03,-10.625 l -4.96,4.512 -2.479,-7.86 -2.944,7.132 -3.72,-4.076 c 0,0 3.156,6.889 2.79,10.917"
         style="fill:#e0cbad;fill-opacity:1;stroke:none;stroke-width:0.757213;stroke-linecap:round;stroke-linejoin:round;stroke-dasharray:none;stroke-dashoffset:0;stroke-opacity:1"
         id="path97" />
      <path
         d="m 1006.75,149.63 c 2.441,1.897 4.725,1.766 7.283,0 -0.407,-3.377 4.029,-10.625 4.029,-10.625 l -4.959,4.512 -2.48,-7.86 -2.944,7.132 -3.719,-4.075 c 0,0 3.156,6.888 2.79,10.916"
         style="fill:#e0cbad;fill-opacity:1;stroke:none;stroke-width:0.757213;stroke-linecap:round;stroke-linejoin:round;stroke-dasharray:none;stroke-dashoffset:0;stroke-opacity:1"
         id="path98" />
      <path
         d="m 1006.625,149.7 c 2.442,1.896 4.725,1.766 7.283,0 -0.407,-3.378 4.03,-10.626 4.03,-10.626 l -4.96,4.513 -2.48,-7.86 -2.943,7.132 -3.72,-4.076 c 0,0 3.156,6.888 2.79,10.917 m -0.055,-2.606 c 2.442,1.897 5.029,1.79 7.586,0.024"
         style="fill:#e0cbad;fill-opacity:1;stroke:none;stroke-width:0.757213;stroke-linecap:round;stroke-linejoin:round;stroke-dasharray:none;stroke-dashoffset:0;stroke-opacity:1"
         id="path99" />
      <ellipse
         cx="1010.552"
         cy="135.002"
         rx="1.58"
         ry="1.62"
         style="fill:#e0cbad;fill-opacity:1;stroke:none;stroke-width:0.757213;stroke-linecap:round;stroke-linejoin:round;stroke-dasharray:none;stroke-dashoffset:0;stroke-opacity:1"
         id="ellipse99" />
      <ellipse
         cx="1017.875"
         cy="139.073"
         rx="1.278"
         ry="1.3099999"
         style="fill:#e0cbad;fill-opacity:1;stroke:none;stroke-width:0.757213;stroke-linecap:round;stroke-linejoin:round;stroke-dasharray:none;stroke-dashoffset:0;stroke-opacity:1"
         id="ellipse100" />
      <ellipse
         cx="1003.598"
         cy="138.368"
         rx="1.278"
         ry="1.3099999"
         style="fill:#e0cbad;fill-opacity:1;stroke:none;stroke-width:0.757213;stroke-linecap:round;stroke-linejoin:round;stroke-dasharray:none;stroke-dashoffset:0;stroke-opacity:1"
         id="ellipse101" />
    </g>
  </g>
</svg>
