<?xml version="1.0" encoding="UTF-8" standalone="no"?>
<!-- Created with Inkscape (http://www.inkscape.org/) -->

<svg
   width="13.499571mm"
   height="13.480792mm"
   viewBox="0 0 13.499571 13.480792"
   version="1.1"
   id="svg1"
   xmlns="http://www.w3.org/2000/svg"
   xmlns:svg="http://www.w3.org/2000/svg">
  <defs
     id="defs1" />
  <g
     id="layer1"
     transform="translate(-85.460508,-97.102093)">
    <g
       transform="matrix(-0.99253941,0.48308635,-0.48308635,-0.99253941,1242.4895,-287.04102)"
       id="g97">
      <path
         d="m 1087.042,134.705 c 0.48,1.924 3.336,3.983 4.916,3.373 1.579,-0.61 1.535,-4.372 0.236,-5.882 -0.358,-0.415 -1.07,-0.086 -1.602,-0.17 -0.559,-0.086 -1.146,-0.547 -1.665,-0.345 -0.55,0.215 -0.704,0.953 -1.018,1.456 -0.316,0.506 -1.015,0.974 -0.867,1.568"
         style="fill:#1cb3f4;fill-opacity:1;stroke:#000000;stroke-width:0.536298;stroke-linecap:round;stroke-linejoin:round;stroke-dasharray:none;stroke-dashoffset:0;stroke-opacity:1"
         id="path92" />
      <path
         d="m 1094.265,132.573 c -1.79,0.715 -3.252,3.819 -2.35,5.32 0.902,1.5 4.573,0.995 5.8,-0.487 0.336,-0.408 -0.124,-1.08 -0.145,-1.62 -0.023,-0.568 0.315,-1.21 0.017,-1.703 -0.317,-0.524 -1.068,-0.586 -1.62,-0.838 -0.556,-0.253 -1.15,-0.893 -1.702,-0.672 z"
         style="fill:#1cb3f4;fill-opacity:1;stroke:#000000;stroke-width:0.536298;stroke-linecap:round;stroke-linejoin:round;stroke-dasharray:none;stroke-dashoffset:0;stroke-opacity:1"
         id="path93" />
      <path
         d="m 1097.021,140.05 c -0.657,-1.876 -3.684,-3.659 -5.193,-2.898 -1.51,0.76 -1.113,4.514 0.318,5.898 0.394,0.38 1.07,-0.017 1.605,0.015 0.563,0.034 1.189,0.437 1.684,0.186 0.527,-0.268 0.61,-1.02 0.874,-1.552 0.265,-0.536 0.915,-1.07 0.712,-1.65"
         style="fill:#1cb3f4;fill-opacity:1;stroke:#000000;stroke-width:0.536298;stroke-linecap:round;stroke-linejoin:round;stroke-dasharray:none;stroke-dashoffset:0;stroke-opacity:1"
         id="path94" />
      <path
         d="m 1089.057,142.597 c 1.912,-0.314 4,-3.013 3.424,-4.661 -0.575,-1.648 -4.297,-1.939 -5.814,-0.761 -0.417,0.323 -0.104,1.072 -0.196,1.601 -0.096,0.556 -0.562,1.108 -0.371,1.65 0.202,0.575 0.93,0.795 1.421,1.156 0.495,0.364 0.946,1.112 1.536,1.015"
         style="fill:#1cb3f4;fill-opacity:1;stroke:#000000;stroke-width:0.536298;stroke-linecap:round;stroke-linejoin:round;stroke-dasharray:none;stroke-dashoffset:0;stroke-opacity:1"
         id="path95" />
      <path
         d="m 1096.037,134.984 c -0.4,0.428 -1.46,1.375 -3.01,1.462 m -0.107,2.249 c 0.184,0.556 0.634,1.892 1.774,2.372 m -4.132,-2.577 c -0.54,0.745 -2.053,1.57 -2.61,1.52 m 1.483,-6.629 c -0.127,0.947 1.072,2.224 1.513,2.567"
         style="fill:none;fill-opacity:1;stroke:#000000;stroke-width:0.300762;stroke-linecap:round;stroke-linejoin:round;stroke-dasharray:none;stroke-opacity:1"
         id="path96" />
      <ellipse
         cx="768.55798"
         cy="-787.72699"
         rx="1.95"
         ry="1.847"
         style="fill:#ffffff;fill-opacity:1;stroke:#000000;stroke-width:0.21;stroke-linecap:round;stroke-linejoin:round;stroke-dasharray:none;stroke-dashoffset:0;stroke-opacity:1"
         transform="rotate(52.879)"
         id="ellipse96" />
      <ellipse
         cx="741.85901"
         cy="-761.15601"
         rx="1.253"
         ry="1.212"
         style="fill:#ffa600;fill-opacity:1;stroke:#000000;stroke-width:0.265869;stroke-linecap:round;stroke-linejoin:round;stroke-dasharray:none;stroke-dashoffset:0;stroke-opacity:1"
         transform="matrix(0.63222,0.77479,-0.81844,0.57459,0,0)"
         id="ellipse97" />
    </g>
  </g>
</svg>
