<svg xmlns="http://www.w3.org/2000/svg" xmlns:xlink="http://www.w3.org/1999/xlink" xml:space="preserve" width="115mm" height="115mm" viewBox="0 0 115 115"><defs><linearGradient id="h"><stop offset="0" style="stop-color:#ffa600;stop-opacity:1"/><stop offset=".5" style="stop-color:#ffdb98;stop-opacity:1"/><stop offset="1" style="stop-color:#ffa600;stop-opacity:1"/></linearGradient><linearGradient id="g"><stop offset="0" style="stop-color:#c46e35;stop-opacity:.97647101"/><stop offset="1" style="stop-color:#502e18;stop-opacity:1"/></linearGradient><linearGradient id="f"><stop offset="0" style="stop-color:#ba6834;stop-opacity:.97647101"/><stop offset="1" style="stop-color:#623719;stop-opacity:1"/></linearGradient><linearGradient id="a"><stop offset="0" style="stop-color:#4e0001;stop-opacity:1"/><stop offset="1" style="stop-color:#910001;stop-opacity:0"/></linearGradient><linearGradient id="c"><stop offset=".202" style="stop-color:#664f34;stop-opacity:1"/><stop offset="1" style="stop-color:#d8d1b6;stop-opacity:0"/></linearGradient><linearGradient id="d"><stop offset=".144" style="stop-color:#7a5b32;stop-opacity:1"/><stop offset="1" style="stop-color:#e4c497;stop-opacity:0"/></linearGradient><linearGradient id="b"><stop offset="0" style="stop-color:#ede2d1;stop-opacity:1"/><stop offset="1" style="stop-color:#ede2d1;stop-opacity:0"/></linearGradient><linearGradient id="e"><stop offset="0" style="stop-color:#145906;stop-opacity:.98897059"/><stop offset="1" style="stop-color:#145906;stop-opacity:0"/></linearGradient><linearGradient xlink:href="#a" id="t" x1="192.599" x2="183.56" y1="97.677" y2="81.47" gradientUnits="userSpaceOnUse"/><linearGradient xlink:href="#c" id="n" x1="983.49" x2="964.367" y1="63.582" y2="56.036" gradientTransform="translate(-952.533 2.882)" gradientUnits="userSpaceOnUse"/><linearGradient xlink:href="#d" id="o" x1="1029.954" x2="1051.448" y1="71.777" y2="70.489" gradientTransform="translate(-951.312 5.628)" gradientUnits="userSpaceOnUse"/><linearGradient xlink:href="#e" id="p" x1="975.713" x2="967.453" y1="73.823" y2="80.662" gradientTransform="translate(-6.158 6.57)" gradientUnits="userSpaceOnUse"/><linearGradient xlink:href="#e" id="k" x1="975.713" x2="967.453" y1="73.823" y2="80.662" gradientTransform="translate(-6.158 6.57)" gradientUnits="userSpaceOnUse"/><linearGradient xlink:href="#e" id="q" x1="975.713" x2="967.453" y1="73.823" y2="80.662" gradientTransform="translate(-6.158 6.57)" gradientUnits="userSpaceOnUse"/><linearGradient xlink:href="#e" id="r" x1="975.713" x2="967.453" y1="73.823" y2="80.662" gradientTransform="translate(-6.158 6.57)" gradientUnits="userSpaceOnUse"/><linearGradient xlink:href="#e" id="s" x1="975.713" x2="967.453" y1="73.823" y2="80.662" gradientTransform="translate(-6.158 6.57)" gradientUnits="userSpaceOnUse"/><linearGradient xlink:href="#f" id="i" x1="1058.432" x2="1060.314" y1="210.976" y2="213.423" gradientTransform="translate(-39.79 -24.135)" gradientUnits="userSpaceOnUse"/><linearGradient xlink:href="#f" id="l" x1="1058.432" x2="1060.314" y1="210.976" y2="213.423" gradientTransform="matrix(-1 0 0 1 2058.105 -24.023)" gradientUnits="userSpaceOnUse"/><linearGradient xlink:href="#h" id="v" x1="1005.715" x2="1013.103" y1="142.088" y2="142.228" gradientUnits="userSpaceOnUse"/><linearGradient xlink:href="#h" id="y" x1="1005.715" x2="1012.544" y1="142.088" y2="142.228" gradientUnits="userSpaceOnUse"/><linearGradient xlink:href="#h" id="w" x1="1005.715" x2="1013.103" y1="142.088" y2="142.228" gradientUnits="userSpaceOnUse"/><linearGradient xlink:href="#h" id="x" x1="1005.715" x2="1013.103" y1="142.088" y2="142.228" gradientUnits="userSpaceOnUse"/><linearGradient xlink:href="#h" id="z" x1="1005.715" x2="1013.103" y1="142.088" y2="142.228" gradientUnits="userSpaceOnUse"/><linearGradient xlink:href="#h" id="A" x1="1005.715" x2="1013.103" y1="142.088" y2="142.228" gradientUnits="userSpaceOnUse"/><linearGradient xlink:href="#h" id="B" x1="1005.715" x2="1013.103" y1="142.088" y2="142.228" gradientUnits="userSpaceOnUse"/><radialGradient xlink:href="#b" id="u" cx="1003.204" cy="70.089" r="36.567" fx="1003.204" fy="70.089" gradientTransform="rotate(-6.535 1121.592 10554.783)scale(1.2534 .21221)" gradientUnits="userSpaceOnUse"/><radialGradient xlink:href="#g" id="j" cx="1106.533" cy="43.426" r="5.372" fx="1106.533" fy="43.426" gradientTransform="matrix(1.72607 -.10615 .07767 1.25927 -849.561 86.137)" gradientUnits="userSpaceOnUse"/><radialGradient xlink:href="#g" id="m" cx="1107.576" cy="43.683" r="5.372" fx="1107.576" fy="43.683" gradientTransform="rotate(-3.524 4190.852 46527.682)scale(1.72932 1.26344)" gradientUnits="userSpaceOnUse"/></defs><g transform="rotate(-2.133 -2860.282 25712.211)"><path d="m1050.949 160.403-24.528 20.085a634 634 0 0 0-7.665 6.178l-17.093 13.997c-20.408 16.71-24.732 21.197-24.143 21.89.588.692 5.635-2.496 26.267-19.391l17.094-13.997a624 624 0 0 0 7.566-6.294l24.528-20.085z" style="fill:url(#i);fill-opacity:.976471;stroke:#000;stroke-width:.793;stroke-linecap:round;stroke-dasharray:none;stroke-opacity:1"/><ellipse cx="1064.013" cy="25.269" rx="4.487" ry="4.48" style="fill:url(#j);stroke:#000;stroke-width:.793;stroke-linecap:round;stroke-linejoin:round;stroke-dasharray:none;stroke-opacity:1" transform="rotate(7.345)skewX(-.021)"/></g><path d="M969.244 76.444c-3.438 1.519-8.172 9.57-7.23 10.413s8.719-.905 11.97-6.402c.352-3.026-1.868-4.45-4.74-4.01" style="fill:#a9c183;fill-opacity:1;stroke:none;stroke-width:.606;stroke-linecap:round;stroke-linejoin:round;stroke-dasharray:none;stroke-dashoffset:0;stroke-opacity:1" transform="rotate(-96.375 646.104 609.564)scale(1.2739)"/><path d="M969.269 76.234c-2.501.96-8.157 9.819-6.812 10.704 1.345.886 9.313-3.009 11.678-6.483.402-3.058-2.777-4.498-4.866-4.221" style="fill:url(#k);stroke:none;stroke-width:.410868;stroke-linecap:round;stroke-linejoin:round;stroke-dasharray:none;stroke-dashoffset:0;stroke-opacity:1" transform="rotate(-96.375 646.104 609.564)scale(1.2739)"/><path d="M969.336 76.259c-3.438 1.518-8.172 9.57-7.23 10.413.942.842 8.719-.906 11.97-6.403.351-3.025-1.868-4.449-4.74-4.01" style="fill:none;fill-opacity:1;stroke:#000;stroke-width:.606;stroke-linecap:round;stroke-linejoin:round;stroke-dasharray:none;stroke-dashoffset:0;stroke-opacity:1" transform="rotate(-96.375 646.104 609.564)scale(1.2739)"/><path d="M962.163 86.702c3.644-2.534 9.939-8.281 10.908-9.636m-10.695 7.905c.752-.358 1.272-.37 1.917.104m-1.104-1.837c1.341-.324 2.259-.114 3.008.325m-1.902-2.05c1.306-.29 2.573.044 3.564.551m-2.572-2.041c1.584-.463 3.37.044 4.154.586m-2.804-2.256c2.374-.11 3.509.577 4.164 1.01m-6.553 5.747c.37.473.613.808.704 1.42m1.258-2.945c.371.647.579 1.64.566 2.46m1.132-3.95c.371.646.648 2.23.635 3.049m.935-4.52c.37.645.915 2.66.902 3.48m.427-4.746c.37.646.89 2.783.877 3.603m-3.786-5.8c1.807-.081 3.016.27 4.164 1.01m.01.04c.37.646.89 2.783.877 3.603" style="fill:none;fill-opacity:1;stroke:#000;stroke-width:.406;stroke-linecap:round;stroke-linejoin:round;stroke-dasharray:none;stroke-dashoffset:0;stroke-opacity:1" transform="rotate(-96.375 646.104 609.564)scale(1.2739)"/><g transform="rotate(1.45 5529.38 -37521.955)"><path d="m967.367 160.515 24.528 20.085a634 634 0 0 1 7.664 6.178l17.094 13.997c20.407 16.71 24.731 21.197 24.143 21.89-.589.692-5.636-2.496-26.268-19.39l-17.094-13.998a624 624 0 0 1-7.566-6.294l-24.528-20.085Z" style="fill:url(#l);fill-opacity:.976471;stroke:#000;stroke-width:.793;stroke-linecap:round;stroke-dasharray:none;stroke-opacity:1"/><circle cx="-938.612" cy="284.65" r="4.487" style="fill:url(#m);stroke:#000;stroke-width:.793218;stroke-linecap:round;stroke-linejoin:round;stroke-dasharray:none;stroke-opacity:1" transform="rotate(-7.355)scale(-1 1)"/></g><path d="M31.03 60.362 7.673 49.746s5.531 5.022 7.915 11.774C17.97 68.273 8.06 74.453 8.06 74.453l22.584-5.405z" style="fill:#f2c67c;fill-opacity:1;stroke:none;stroke-width:1.006;stroke-linecap:round;stroke-linejoin:round;stroke-dasharray:none"/><path d="M30.589 60.493 7.233 49.877s5.53 5.022 7.914 11.774c2.383 6.753-7.528 12.933-7.528 12.933l22.584-5.405z" style="fill:url(#n);fill-opacity:1;stroke:none;stroke-width:1.006;stroke-linecap:round;stroke-linejoin:round;stroke-dasharray:none"/><path d="M75.744 74.416 97.843 87.04s-6.013-5.792-2.9-10.514 13.707-10.021 13.707-10.021l-30.735 3.287z" style="fill:#f2c67c;fill-opacity:1;stroke:none;stroke-width:1.006;stroke-linecap:round;stroke-linejoin:round;stroke-dasharray:none"/><path d="m76.065 74.128 22.098 12.624s-6.012-5.791-2.9-10.513c3.113-4.722 13.708-10.022 13.708-10.022l-30.736 3.287z" style="fill:url(#o);stroke:none;stroke-width:1.006;stroke-linecap:round;stroke-linejoin:round;stroke-dasharray:none"/><path d="M969.244 76.444c-3.438 1.519-8.172 9.57-7.23 10.413s8.719-.905 11.97-6.402c.352-3.026-1.868-4.45-4.74-4.01" style="fill:#a9c183;fill-opacity:1;stroke:none;stroke-width:.606;stroke-linecap:round;stroke-linejoin:round;stroke-dasharray:none;stroke-dashoffset:0;stroke-opacity:1" transform="rotate(223.218 614.432 288.627)scale(1.18903)"/><path d="M969.269 76.234c-2.501.96-8.157 9.819-6.812 10.704 1.345.886 9.313-3.009 11.678-6.483.402-3.058-2.777-4.498-4.866-4.221" style="fill:url(#p);stroke:none;stroke-width:.410868;stroke-linecap:round;stroke-linejoin:round;stroke-dasharray:none;stroke-dashoffset:0;stroke-opacity:1" transform="rotate(223.218 614.432 288.627)scale(1.18903)"/><path d="M969.336 76.259c-3.438 1.518-8.172 9.57-7.23 10.413.942.842 8.719-.906 11.97-6.403.351-3.025-1.868-4.449-4.74-4.01" style="fill:none;fill-opacity:1;stroke:#000;stroke-width:.606;stroke-linecap:round;stroke-linejoin:round;stroke-dasharray:none;stroke-dashoffset:0;stroke-opacity:1" transform="rotate(223.218 614.432 288.627)scale(1.18903)"/><path d="M962.163 86.702c3.644-2.534 9.939-8.281 10.908-9.636m-10.695 7.905c.752-.358 1.272-.37 1.917.104m-1.104-1.837c1.341-.324 2.259-.114 3.008.325m-1.902-2.05c1.306-.29 2.573.044 3.564.551m-2.572-2.041c1.584-.463 3.37.044 4.154.586m-2.804-2.256c2.374-.11 3.509.577 4.164 1.01m-6.553 5.747c.37.473.613.808.704 1.42m1.258-2.945c.371.647.579 1.64.566 2.46m1.132-3.95c.371.646.648 2.23.635 3.049m.935-4.52c.37.645.915 2.66.902 3.48m.427-4.746c.37.646.89 2.783.877 3.603m-3.786-5.8c1.807-.081 3.016.27 4.164 1.01m.01.04c.37.646.89 2.783.877 3.603" style="fill:none;fill-opacity:1;stroke:#000;stroke-width:.406;stroke-linecap:round;stroke-linejoin:round;stroke-dasharray:none;stroke-dashoffset:0;stroke-opacity:1" transform="rotate(223.218 614.432 288.627)scale(1.18903)"/><path d="M969.244 76.444c-3.438 1.519-8.172 9.57-7.23 10.413s8.719-.905 11.97-6.402c.352-3.026-1.868-4.45-4.74-4.01" style="fill:#a9c183;fill-opacity:1;stroke:none;stroke-width:.606;stroke-linecap:round;stroke-linejoin:round;stroke-dasharray:none;stroke-dashoffset:0;stroke-opacity:1" transform="rotate(193.21 679.161 146.784)scale(1.31377)"/><path d="M969.269 76.234c-2.501.96-8.157 9.819-6.812 10.704 1.345.886 9.313-3.009 11.678-6.483.402-3.058-2.777-4.498-4.866-4.221" style="fill:url(#q);stroke:none;stroke-width:.410868;stroke-linecap:round;stroke-linejoin:round;stroke-dasharray:none;stroke-dashoffset:0;stroke-opacity:1" transform="rotate(193.21 679.161 146.784)scale(1.31377)"/><path d="M969.336 76.259c-3.438 1.518-8.172 9.57-7.23 10.413.942.842 8.719-.906 11.97-6.403.351-3.025-1.868-4.449-4.74-4.01" style="fill:none;fill-opacity:1;stroke:#000;stroke-width:.606;stroke-linecap:round;stroke-linejoin:round;stroke-dasharray:none;stroke-dashoffset:0;stroke-opacity:1" transform="rotate(193.21 679.161 146.784)scale(1.31377)"/><path d="M962.163 86.702c3.644-2.534 9.939-8.281 10.908-9.636m-10.695 7.905c.752-.358 1.272-.37 1.917.104m-1.104-1.837c1.341-.324 2.259-.114 3.008.325m-1.902-2.05c1.306-.29 2.573.044 3.564.551m-2.572-2.041c1.584-.463 3.37.044 4.154.586m-2.804-2.256c2.374-.11 3.509.577 4.164 1.01m-6.553 5.747c.37.473.613.808.704 1.42m1.258-2.945c.371.647.579 1.64.566 2.46m1.132-3.95c.371.646.648 2.23.635 3.049m.935-4.52c.37.645.915 2.66.902 3.48m.427-4.746c.37.646.89 2.783.877 3.603m-3.786-5.8c1.807-.081 3.016.27 4.164 1.01m.01.04c.37.646.89 2.783.877 3.603" style="fill:none;fill-opacity:1;stroke:#000;stroke-width:.406;stroke-linecap:round;stroke-linejoin:round;stroke-dasharray:none;stroke-dashoffset:0;stroke-opacity:1" transform="rotate(193.21 679.161 146.784)scale(1.31377)"/><path d="M969.244 76.444c-3.438 1.519-8.172 9.57-7.23 10.413s8.719-.905 11.97-6.402c.352-3.026-1.868-4.45-4.74-4.01" style="fill:#a9c183;fill-opacity:1;stroke:none;stroke-width:.606;stroke-linecap:round;stroke-linejoin:round;stroke-dasharray:none;stroke-dashoffset:0;stroke-opacity:1" transform="rotate(77.836 688.124 -698.931)scale(1.32526)"/><path d="M969.269 76.234c-2.501.96-8.157 9.819-6.812 10.704 1.345.886 9.313-3.009 11.678-6.483.402-3.058-2.777-4.498-4.866-4.221" style="fill:url(#r);stroke:none;stroke-width:.410868;stroke-linecap:round;stroke-linejoin:round;stroke-dasharray:none;stroke-dashoffset:0;stroke-opacity:1" transform="rotate(77.836 688.124 -698.931)scale(1.32526)"/><path d="M969.336 76.259c-3.438 1.518-8.172 9.57-7.23 10.413.942.842 8.719-.906 11.97-6.403.351-3.025-1.868-4.449-4.74-4.01" style="fill:none;fill-opacity:1;stroke:#000;stroke-width:.606;stroke-linecap:round;stroke-linejoin:round;stroke-dasharray:none;stroke-dashoffset:0;stroke-opacity:1" transform="rotate(77.836 688.124 -698.931)scale(1.32526)"/><path d="M962.163 86.702c3.644-2.534 9.939-8.281 10.908-9.636m-10.695 7.905c.752-.358 1.272-.37 1.917.104m-1.104-1.837c1.341-.324 2.259-.114 3.008.325m-1.902-2.05c1.306-.29 2.573.044 3.564.551m-2.572-2.041c1.584-.463 3.37.044 4.154.586m-2.804-2.256c2.374-.11 3.509.577 4.164 1.01m-6.553 5.747c.37.473.613.808.704 1.42m1.258-2.945c.371.647.579 1.64.566 2.46m1.132-3.95c.371.646.648 2.23.635 3.049m.935-4.52c.37.645.915 2.66.902 3.48m.427-4.746c.37.646.89 2.783.877 3.603m-3.786-5.8c1.807-.081 3.016.27 4.164 1.01m.01.04c.37.646.89 2.783.877 3.603" style="fill:none;fill-opacity:1;stroke:#000;stroke-width:.406;stroke-linecap:round;stroke-linejoin:round;stroke-dasharray:none;stroke-dashoffset:0;stroke-opacity:1" transform="rotate(77.836 688.124 -698.931)scale(1.32526)"/><path d="M969.244 76.444c-3.438 1.519-8.172 9.57-7.23 10.413s8.719-.905 11.97-6.402c.352-3.026-1.868-4.45-4.74-4.01" style="fill:#a9c183;fill-opacity:1;stroke:none;stroke-width:.606;stroke-linecap:round;stroke-linejoin:round;stroke-dasharray:none;stroke-dashoffset:0;stroke-opacity:1" transform="translate(-1238.327 -24.728)scale(1.30813)"/><path d="M969.269 76.234c-2.501.96-8.157 9.819-6.812 10.704 1.345.886 9.313-3.009 11.678-6.483.402-3.058-2.777-4.498-4.866-4.221" style="fill:url(#s);stroke:none;stroke-width:.410868;stroke-linecap:round;stroke-linejoin:round;stroke-dasharray:none;stroke-dashoffset:0;stroke-opacity:1" transform="translate(-1238.327 -24.728)scale(1.30813)"/><path d="M969.336 76.259c-3.438 1.518-8.172 9.57-7.23 10.413.942.842 8.719-.906 11.97-6.403.351-3.025-1.868-4.449-4.74-4.01" style="fill:none;fill-opacity:1;stroke:#000;stroke-width:.606;stroke-linecap:round;stroke-linejoin:round;stroke-dasharray:none;stroke-dashoffset:0;stroke-opacity:1" transform="translate(-1238.327 -24.728)scale(1.30813)"/><path d="M962.163 86.702c3.644-2.534 9.939-8.281 10.908-9.636m-10.695 7.905c.752-.358 1.272-.37 1.917.104m-1.104-1.837c1.341-.324 2.259-.114 3.008.325m-1.902-2.05c1.306-.29 2.573.044 3.564.551m-2.572-2.041c1.584-.463 3.37.044 4.154.586m-2.804-2.256c2.374-.11 3.509.577 4.164 1.01m-6.553 5.747c.37.473.613.808.704 1.42m1.258-2.945c.371.647.579 1.64.566 2.46m1.132-3.95c.371.646.648 2.23.635 3.049m.935-4.52c.37.645.915 2.66.902 3.48m.427-4.746c.37.646.89 2.783.877 3.603m-3.786-5.8c1.807-.081 3.016.27 4.164 1.01m.01.04c.37.646.89 2.783.877 3.603" style="fill:none;fill-opacity:1;stroke:#000;stroke-width:.406;stroke-linecap:round;stroke-linejoin:round;stroke-dasharray:none;stroke-dashoffset:0;stroke-opacity:1" transform="translate(-1238.327 -24.728)scale(1.30813)"/><path d="M31.017 60.387 7.661 49.77s5.53 5.023 7.914 11.775-7.528 12.933-7.528 12.933l22.584-5.405zM75.904 74.379l22.098 12.624s-6.012-5.791-2.9-10.514c3.113-4.722 13.708-10.021 13.708-10.021l-30.736 3.287z" style="fill:none;fill-opacity:1;stroke:#000;stroke-width:1.006;stroke-linecap:round;stroke-linejoin:round;stroke-dasharray:none"/><path d="M87.552 74.918c-2.352 5.78-14.477 2.737-14.477 2.737l8.658-8.082s6.69 3.12 5.82 5.345" style="fill:#9f7b51;fill-opacity:1;stroke:#000;stroke-width:1.006;stroke-linecap:round;stroke-linejoin:round;stroke-dasharray:none;stroke-opacity:1"/><path d="M21.086 59.874c1.368-4.957 10.435-3.251 10.435-3.251l-1.201 8.033s-9.8-2.46-9.234-4.782" style="fill:#a67f44;fill-opacity:1;stroke:#000;stroke-width:1.006;stroke-linecap:round;stroke-linejoin:round;stroke-dasharray:none;stroke-opacity:1"/><g style="display:inline"><path d="M149.835 56.606a27.89 27.89 0 0 0-5.816 24.907c3.766 14.933 18.925 23.987 33.858 20.22 14.934-3.765 23.988-18.924 20.222-33.858a27.9 27.9 0 0 0-5.133-10.435c-.12 6.053-10.24 11.2-18.33 11.648-4.134-5.97-13.51-9.805-24.841-12.464 0 0 .011.013.04-.018" style="display:inline;fill:#fe0002;fill-opacity:1;stroke:none;stroke-width:2;stroke-linecap:round;stroke-linejoin:round;stroke-dasharray:none;stroke-opacity:1" transform="rotate(-.535 -1554.833 12349.178)"/><path d="M197.955 68.719c-2.952 12.943-7.957 25.573-21.008 28.864-14.933 3.766-30.092-5.287-33.858-20.22a28 28 0 0 1-.122-.503c.11 1.685.374 3.357.787 4.994 3.766 14.934 18.925 23.987 33.858 20.22 14.739-3.716 23.786-18.55 20.343-33.355" style="display:inline;fill:url(#t);fill-opacity:1;stroke:none;stroke-width:2;stroke-dasharray:none;stroke-opacity:1" transform="rotate(-.535 -1554.833 12349.178)"/><path d="M149.835 56.606a27.89 27.89 0 0 0-5.816 24.907c3.766 14.933 18.925 23.986 33.858 20.22 14.934-3.765 23.988-18.924 20.222-33.858a27.9 27.9 0 0 0-5.133-10.435c-.12 6.053-10.24 11.2-18.33 11.648-4.134-5.97-13.51-9.805-24.841-12.464 0 0 .011.013.04-.018" style="display:inline;fill:none;fill-opacity:1;stroke:#000;stroke-width:1.104;stroke-linecap:round;stroke-linejoin:round;stroke-dasharray:none;stroke-opacity:1" transform="rotate(-.535 -1554.833 12349.178)"/><path d="M197.844 67.165c-9.048 25.185-32.209 11.97-36.862 33.506m35.374-36.475c-7.88 21.732-35.153 10.588-39.986 33.98m38.615-37.535c-9.091 19.585-37.116 11.078-41.949 34.468m21.619-25.883c-16.86 4.14-24.423 8.518-25.943 20.874" style="display:inline;fill:none;stroke:#000;stroke-width:1.104;stroke-linecap:round;stroke-dasharray:none;stroke-opacity:1" transform="rotate(-.535 -1554.833 12349.178)"/><path d="M147.876 59.443c7.68 2.634 17.326 7.087 20.24 11.355m-22.142-8.25c5.428 1.68 12.347 6.875 14.76 10.97m-15.857-7.67c3.607 1.312 9.317 8.254 9.553 11.73m-10.507-8.25c2.274 1.007 5.948 10.847 6.325 14.42" style="display:inline;fill:none;stroke:#000;stroke-width:1.104;stroke-dasharray:none;stroke-opacity:1" transform="rotate(-.535 -1554.833 12349.178)"/><path d="M185.305 82.668c1.962 5.39-3.546 13.17-3.826 17.929m-2.842-15.394c3.574 5.016.45 9.468-1.02 16.646m-4.498-14.438c3.162 5.88 1.148 8.553.607 14.903m-5.46-12.541c2.957 4.4 1.246 8.52.729 12.714m-5.151-8.439c1.853 2.245 1.298 6.14.876 7.717m28.705-25.725c.592 7.696-6.024 15.837-8.39 22.345" style="display:inline;fill:none;stroke:#000;stroke-width:1.104;stroke-linecap:round;stroke-dasharray:none;stroke-opacity:1" transform="rotate(-.535 -1554.833 12349.178)"/></g><path d="M446.674 192.47c13.189-15.827 33.761-12.327 41.293-2.089.68 5.013-6.797 13.245-14.748 14.21-4.134-5.97-15.214-9.463-26.545-12.121z" style="display:inline;fill:#fe0002;fill-opacity:1;stroke:#000;stroke-width:1.29571;stroke-linecap:round;stroke-dasharray:none;stroke-opacity:1" transform="matrix(.88765 .02503 -.01652 .8174 -355.768 -131.952)"/><path d="M482.232 185.701c-1.922 4.498.264 8.538 2.987 11.486m-5.661-13.358c-3.32 6.368-1.527 16.6.594 17.56m-3.496-18.296c-2.958 3.477-8.068 10.528-3.34 21.23m.657-22.032c-3.49 1.788-11.744 8.68-12.492 13.952m8.542-14.42c-6.345 1.862-14.666 7.635-16.999 11.936" style="display:inline;fill:none;stroke:#000;stroke-width:1.29571;stroke-linecap:round;stroke-dasharray:none;stroke-opacity:1" transform="matrix(.88765 .02503 -.01652 .8174 -355.768 -131.952)"/><path d="M21.905 58.367c3.792 11.622 53.23-13.749 68.179 3.432 1.988 2.409 1.84 8.702-2.73 13.662-11.373-9.563-56.176 8.253-63.961.066-2.515-2.967-5.93-13.791-1.488-17.16" style="fill:#f5d49c;fill-opacity:1;stroke:none;stroke-width:1.006;stroke-linecap:round;stroke-linejoin:round;stroke-dasharray:none;stroke-opacity:1"/><path d="M22.277 59.105c3.792 11.622 53.446-13.659 68.396 3.522 1.988 2.409 2.202 8.113-2.369 13.073-11.372-9.563-56.714 8.366-64.5.18-2.53-4.944-3.72-11.002-1.527-16.775" style="fill:url(#u);stroke:none;stroke-width:1.006;stroke-linecap:round;stroke-linejoin:round;stroke-dasharray:none;stroke-opacity:1"/><path d="M25.16 76.235C50.611 79.19 64.645 64 85.27 69.567" style="fill:none;fill-opacity:1;stroke:none;stroke-width:1.006;stroke-linecap:round;stroke-linejoin:round;stroke-dasharray:none;stroke-opacity:1"/><path d="M26.269 69.453c9.361 1.266 29.747-.702 60.83-.456" style="fill:none;fill-opacity:1;stroke:#000;stroke-width:0;stroke-linecap:round;stroke-linejoin:round;stroke-dasharray:none;stroke-opacity:1"/><path d="M91.373 66.379c-12.623-19.77-62.962 5.311-71.426-5.59" style="fill:none;fill-opacity:1;stroke:#000;stroke-width:.406;stroke-linecap:round;stroke-linejoin:round;stroke-dasharray:.406,1.218,1.624,6.09,.406;stroke-dashoffset:0;stroke-opacity:1"/><path d="M88.521 73.938c-7.206-12.012-53.788 7.933-66.635-.853" style="fill:none;fill-opacity:1;stroke:#000;stroke-width:.406;stroke-linecap:round;stroke-linejoin:round;stroke-dasharray:1.218,4.06,2.436;stroke-dashoffset:0;stroke-opacity:1"/><path d="M21.751 58.577c-2.3-1.588-5.555-3.146-8.958-4.723m7.84 15.961c-1.767.343-4.223 1.183-7.959 2.336M104.118 69.153c-3.166-.124-9.751.45-13.22.604m3.822 12.547c-3.365-1.322-7.353-4.278-9.69-4.857" style="fill:none;fill-opacity:1;stroke:#000;stroke-width:.406;stroke-linecap:round;stroke-linejoin:round;stroke-dasharray:2.842,4.06;stroke-dashoffset:0;stroke-opacity:1"/><path d="M86.324 74.656c-4.764 3.54-3.358 1.383-8.559 2.469" style="fill:none;fill-opacity:1;stroke:#000;stroke-width:.406;stroke-linecap:round;stroke-linejoin:round;stroke-dasharray:1.624;stroke-dashoffset:0;stroke-opacity:1"/><path d="M28.087 58.362c-1.967-.19-3.625.45-5.096 1.603" style="fill:none;fill-opacity:1;stroke:#000;stroke-width:.406;stroke-linecap:round;stroke-linejoin:round;stroke-dasharray:2.03;stroke-dashoffset:0;stroke-opacity:1"/><path d="M22.034 58.225c3.792 11.622 53.23-13.749 68.18 3.432 1.987 2.409 1.84 8.702-2.731 13.662-11.372-9.563-56.176 8.253-63.961.066-2.514-2.967-5.93-13.791-1.488-17.16" style="fill:none;fill-opacity:1;stroke:#000;stroke-width:1.006;stroke-linecap:round;stroke-linejoin:round;stroke-dasharray:none;stroke-opacity:1"/><path d="M40.734 16.206c-.683 2.991-.92 2.664-3.444 3.514 2.98.892 2.662 1.516 3.59 3.948.756-2.517 1.027-3.453 3.409-4.127-2.866-.546-2.744-.608-3.555-3.335" style="fill:#000;fill-opacity:.952381;stroke:#000;stroke-width:.406;stroke-linecap:round;stroke-linejoin:round;stroke-dasharray:none;stroke-dashoffset:0;stroke-opacity:1"/><path d="M73.82 92.788c-.683 2.99-.92 2.664-3.444 3.514 2.98.892 2.661 1.515 3.59 3.948.756-2.517 1.027-3.453 3.408-4.127-2.866-.547-2.744-.608-3.555-3.335" style="fill:#000;fill-opacity:.952941;stroke:#000;stroke-width:.406;stroke-linecap:round;stroke-linejoin:round;stroke-dasharray:none;stroke-dashoffset:0;stroke-opacity:1"/><path d="M43.283 93.045c-.413 1.722-.556 1.534-2.08 2.023 1.8.514 1.607.873 2.168 2.273.457-1.449.621-1.988 2.06-2.376-1.732-.315-1.658-.35-2.148-1.92" style="fill:#000;fill-opacity:.952941;stroke:#000;stroke-width:.239484;stroke-linecap:round;stroke-linejoin:round;stroke-dasharray:none;stroke-dashoffset:0;stroke-opacity:1"/><path d="M26.903 30.72c-.412 1.722-.555 1.534-2.08 2.023 1.8.514 1.608.873 2.168 2.274.458-1.45.621-1.989 2.06-2.377-1.731-.314-1.658-.35-2.148-1.92M85.322 25.067c-.412 1.722-.555 1.534-2.08 2.023 1.8.514 1.608.873 2.168 2.273.458-1.45.621-1.988 2.06-2.376-1.731-.315-1.658-.35-2.148-1.92" style="fill:#000;fill-opacity:.952941;stroke:#000;stroke-width:.339;stroke-linecap:round;stroke-linejoin:round;stroke-dasharray:none;stroke-dashoffset:0;stroke-opacity:1"/><circle cx="29.438" cy="39.263" r=".692" style="fill:#000;fill-opacity:1;stroke:none;stroke-width:.406;stroke-linecap:round;stroke-linejoin:round;stroke-dasharray:none;stroke-dashoffset:0;stroke-opacity:1"/><circle cx="82.644" cy="36.781" r=".692" style="fill:#000;fill-opacity:1;stroke:none;stroke-width:.406;stroke-linecap:round;stroke-linejoin:round;stroke-dasharray:none;stroke-dashoffset:0;stroke-opacity:1"/><circle cx="89.483" cy="36.095" r=".692" style="fill:#000;fill-opacity:1;stroke:none;stroke-width:.406;stroke-linecap:round;stroke-linejoin:round;stroke-dasharray:none;stroke-dashoffset:0;stroke-opacity:1"/><circle cx="82.444" cy="101.678" r=".692" style="fill:#000;fill-opacity:1;stroke:none;stroke-width:.406;stroke-linecap:round;stroke-linejoin:round;stroke-dasharray:none;stroke-dashoffset:0;stroke-opacity:1"/><circle cx="64.723" cy="93.79" r=".692" style="fill:#000;fill-opacity:1;stroke:none;stroke-width:.406;stroke-linecap:round;stroke-linejoin:round;stroke-dasharray:none;stroke-dashoffset:0;stroke-opacity:1"/><circle cx="94.089" cy="91.075" r=".692" style="fill:#000;fill-opacity:1;stroke:none;stroke-width:.406;stroke-linecap:round;stroke-linejoin:round;stroke-dasharray:none;stroke-dashoffset:0;stroke-opacity:1"/><circle cx="98.027" cy="80.302" r=".692" style="fill:#000;fill-opacity:1;stroke:none;stroke-width:.406;stroke-linecap:round;stroke-linejoin:round;stroke-dasharray:none;stroke-dashoffset:0;stroke-opacity:1"/><circle cx="105.997" cy="71.274" r=".692" style="fill:#000;fill-opacity:1;stroke:none;stroke-width:.406;stroke-linecap:round;stroke-linejoin:round;stroke-dasharray:none;stroke-dashoffset:0;stroke-opacity:1"/><circle cx="101.858" cy="57.316" r=".692" style="fill:#000;fill-opacity:1;stroke:none;stroke-width:.406;stroke-linecap:round;stroke-linejoin:round;stroke-dasharray:none;stroke-dashoffset:0;stroke-opacity:1"/><circle cx="104.335" cy="49.264" r=".692" style="fill:#000;fill-opacity:1;stroke:none;stroke-width:.406;stroke-linecap:round;stroke-linejoin:round;stroke-dasharray:none;stroke-dashoffset:0;stroke-opacity:1"/><circle cx="22.901" cy="94.47" r=".692" style="fill:#000;fill-opacity:1;stroke:none;stroke-width:.406;stroke-linecap:round;stroke-linejoin:round;stroke-dasharray:none;stroke-dashoffset:0;stroke-opacity:1"/><ellipse cx="19.283" cy="76.024" rx=".999" ry=".784" style="fill:#000;fill-opacity:1;stroke:none;stroke-width:.519;stroke-linecap:round;stroke-linejoin:round;stroke-dasharray:none;stroke-dashoffset:0;stroke-opacity:1"/><circle cx="50.383" cy="91.2" r=".692" style="fill:#000;fill-opacity:1;stroke:none;stroke-width:.406;stroke-linecap:round;stroke-linejoin:round;stroke-dasharray:none;stroke-dashoffset:0;stroke-opacity:1"/><circle cx="34.207" cy="26.939" r="1.187" style="fill:#000;fill-opacity:1;stroke:none;stroke-width:.696;stroke-linecap:round;stroke-linejoin:round;stroke-dasharray:none;stroke-dashoffset:0;stroke-opacity:1"/><circle cx="75.848" cy="28.341" r="1.187" style="fill:#000;fill-opacity:1;stroke:none;stroke-width:.696;stroke-linecap:round;stroke-linejoin:round;stroke-dasharray:none;stroke-dashoffset:0;stroke-opacity:1"/><circle cx="107.749" cy="59.508" r="1.187" style="fill:#000;fill-opacity:1;stroke:none;stroke-width:.696;stroke-linecap:round;stroke-linejoin:round;stroke-dasharray:none;stroke-dashoffset:0;stroke-opacity:1"/><circle cx="56.691" cy="95.408" r="1.187" style="fill:#000;fill-opacity:1;stroke:none;stroke-width:.696;stroke-linecap:round;stroke-linejoin:round;stroke-dasharray:none;stroke-dashoffset:0;stroke-opacity:1"/><circle cx="16.048" cy="84.732" r="1.197" style="fill:#000;fill-opacity:1;stroke:none;stroke-width:.702034;stroke-linecap:round;stroke-linejoin:round;stroke-dasharray:none;stroke-dashoffset:0;stroke-opacity:1"/><circle cx="26.974" cy="23.302" r=".692" style="fill:#000;fill-opacity:1;stroke:none;stroke-width:.406;stroke-linecap:round;stroke-linejoin:round;stroke-dasharray:none;stroke-dashoffset:0;stroke-opacity:1"/><circle cx="46.41" cy="25.192" r=".692" style="fill:#000;fill-opacity:1;stroke:none;stroke-width:.406;stroke-linecap:round;stroke-linejoin:round;stroke-dasharray:none;stroke-dashoffset:0;stroke-opacity:1"/><circle cx="76.021" cy="19.206" r=".692" style="fill:#000;fill-opacity:1;stroke:none;stroke-width:.406;stroke-linecap:round;stroke-linejoin:round;stroke-dasharray:none;stroke-dashoffset:0;stroke-opacity:1"/><circle cx="70.582" cy="26.113" r=".692" style="fill:#000;fill-opacity:1;stroke:none;stroke-width:.406;stroke-linecap:round;stroke-linejoin:round;stroke-dasharray:none;stroke-dashoffset:0;stroke-opacity:1"/><g transform="rotate(154.047 847.828 -45.876)scale(1.44498)"><path d="M1086.65 134.514c.48 1.924 3.336 3.983 4.915 3.373s1.536-4.372.236-5.882c-.357-.415-1.07-.086-1.601-.169-.56-.087-1.146-.548-1.665-.346-.551.215-.704.953-1.018 1.456-.316.506-1.016.974-.867 1.568" style="fill:#1cb3f4;fill-opacity:1;stroke:#000;stroke-width:.409552;stroke-linecap:round;stroke-linejoin:round;stroke-dasharray:none;stroke-dashoffset:0;stroke-opacity:1"/><path d="M1094.265 132.573c-1.79.715-3.252 3.819-2.35 5.32.902 1.5 4.573.995 5.8-.487.336-.408-.124-1.08-.145-1.62-.023-.568.315-1.21.017-1.703-.317-.524-1.068-.586-1.62-.838-.556-.253-1.15-.893-1.702-.672z" style="fill:#1cb3f4;fill-opacity:1;stroke:#000;stroke-width:.409552;stroke-linecap:round;stroke-linejoin:round;stroke-dasharray:none;stroke-dashoffset:0;stroke-opacity:1"/><path d="M1097.021 140.05c-.657-1.876-3.684-3.659-5.193-2.898-1.51.76-1.113 4.514.318 5.898.394.38 1.07-.017 1.605.015.563.034 1.189.437 1.684.186.527-.268.61-1.02.874-1.552.265-.536.915-1.07.712-1.65" style="fill:#1cb3f4;fill-opacity:1;stroke:#000;stroke-width:.409552;stroke-linecap:round;stroke-linejoin:round;stroke-dasharray:none;stroke-dashoffset:0;stroke-opacity:1"/><path d="M1089.057 142.597c1.912-.314 4-3.013 3.424-4.661-.575-1.648-4.297-1.939-5.814-.761-.417.323-.104 1.072-.196 1.601-.096.556-.562 1.108-.371 1.65.202.575.93.795 1.421 1.156.495.364.946 1.112 1.536 1.015" style="fill:#1cb3f4;fill-opacity:1;stroke:#000;stroke-width:.409552;stroke-linecap:round;stroke-linejoin:round;stroke-dasharray:none;stroke-dashoffset:0;stroke-opacity:1"/><path d="M1093.115 136.214c.433-.394 1.566-1.252 3.117-1.214M1094.373 141.144c-.418-.41-1.42-1.402-1.348-2.637M1090.877 138.518c-.547.74-2.068 1.549-2.624 1.493M1090.878 136.079c-.891-.343-1.438-2.007-1.528-2.558" style="fill:none;fill-opacity:1;stroke:#000;stroke-width:.23;stroke-linecap:round;stroke-linejoin:round;stroke-dasharray:none;stroke-opacity:1"/><ellipse cx="768.558" cy="-787.727" rx="1.95" ry="1.847" style="fill:#fff;fill-opacity:1;stroke:#000;stroke-width:.21;stroke-linecap:round;stroke-linejoin:round;stroke-dasharray:none;stroke-dashoffset:0;stroke-opacity:1" transform="rotate(52.879)"/><ellipse cx="741.859" cy="-761.156" rx="1.253" ry="1.212" style="fill:#ffa600;fill-opacity:1;stroke:#000;stroke-width:.265869;stroke-linecap:round;stroke-linejoin:round;stroke-dasharray:none;stroke-dashoffset:0;stroke-opacity:1" transform="matrix(.63222 .77479 -.81844 .57459 0 0)"/></g><g transform="rotate(154.047 628.848 -17.99)scale(1.10386)"><path d="M1087.042 134.705c.48 1.924 3.336 3.983 4.916 3.373 1.579-.61 1.535-4.372.236-5.882-.358-.415-1.07-.086-1.602-.17-.559-.086-1.146-.547-1.665-.345-.55.215-.704.953-1.018 1.456-.316.506-1.015.974-.867 1.568" style="fill:#1cb3f4;fill-opacity:1;stroke:#000;stroke-width:.536298;stroke-linecap:round;stroke-linejoin:round;stroke-dasharray:none;stroke-dashoffset:0;stroke-opacity:1"/><path d="M1094.265 132.573c-1.79.715-3.252 3.819-2.35 5.32.902 1.5 4.573.995 5.8-.487.336-.408-.124-1.08-.145-1.62-.023-.568.315-1.21.017-1.703-.317-.524-1.068-.586-1.62-.838-.556-.253-1.15-.893-1.702-.672z" style="fill:#1cb3f4;fill-opacity:1;stroke:#000;stroke-width:.536298;stroke-linecap:round;stroke-linejoin:round;stroke-dasharray:none;stroke-dashoffset:0;stroke-opacity:1"/><path d="M1097.021 140.05c-.657-1.876-3.684-3.659-5.193-2.898-1.51.76-1.113 4.514.318 5.898.394.38 1.07-.017 1.605.015.563.034 1.189.437 1.684.186.527-.268.61-1.02.874-1.552.265-.536.915-1.07.712-1.65" style="fill:#1cb3f4;fill-opacity:1;stroke:#000;stroke-width:.536298;stroke-linecap:round;stroke-linejoin:round;stroke-dasharray:none;stroke-dashoffset:0;stroke-opacity:1"/><path d="M1089.057 142.597c1.912-.314 4-3.013 3.424-4.661-.575-1.648-4.297-1.939-5.814-.761-.417.323-.104 1.072-.196 1.601-.096.556-.562 1.108-.371 1.65.202.575.93.795 1.421 1.156.495.364.946 1.112 1.536 1.015" style="fill:#1cb3f4;fill-opacity:1;stroke:#000;stroke-width:.536298;stroke-linecap:round;stroke-linejoin:round;stroke-dasharray:none;stroke-dashoffset:0;stroke-opacity:1"/><path d="M1096.037 134.984c-.4.428-1.46 1.375-3.01 1.462M1092.92 138.695c.184.556.634 1.892 1.774 2.372M1090.562 138.49c-.54.745-2.053 1.57-2.61 1.52M1089.435 133.381c-.127.947 1.072 2.224 1.513 2.567" style="fill:none;fill-opacity:1;stroke:#000;stroke-width:.300762;stroke-linecap:round;stroke-linejoin:round;stroke-dasharray:none;stroke-opacity:1"/><ellipse cx="768.558" cy="-787.727" rx="1.95" ry="1.847" style="fill:#fff;fill-opacity:1;stroke:#000;stroke-width:.21;stroke-linecap:round;stroke-linejoin:round;stroke-dasharray:none;stroke-dashoffset:0;stroke-opacity:1" transform="rotate(52.879)"/><ellipse cx="741.859" cy="-761.156" rx="1.253" ry="1.212" style="fill:#ffa600;fill-opacity:1;stroke:#000;stroke-width:.265869;stroke-linecap:round;stroke-linejoin:round;stroke-dasharray:none;stroke-dashoffset:0;stroke-opacity:1" transform="matrix(.63222 .77479 -.81844 .57459 0 0)"/></g><g style="fill:url(#v);fill-opacity:1;stroke-width:.757213;stroke-dasharray:none" transform="translate(-1272.88 -165.312)scale(1.31725)"><path d="M1006.615 149.733c2.442 1.897 4.725 1.766 7.283 0-.407-3.378 4.03-10.625 4.03-10.625l-4.96 4.512-2.479-7.86-2.944 7.132-3.72-4.076s3.156 6.889 2.79 10.917" style="fill:url(#w);fill-opacity:1;stroke:none;stroke-width:.757213;stroke-linecap:round;stroke-linejoin:round;stroke-dasharray:none;stroke-dashoffset:0;stroke-opacity:1"/><path d="M1006.75 149.63c2.441 1.897 4.725 1.766 7.283 0-.407-3.377 4.029-10.625 4.029-10.625l-4.959 4.512-2.48-7.86-2.944 7.132-3.719-4.075s3.156 6.888 2.79 10.916" style="fill:url(#x);fill-opacity:1;stroke:none;stroke-width:.757213;stroke-linecap:round;stroke-linejoin:round;stroke-dasharray:none;stroke-dashoffset:0;stroke-opacity:1"/><path d="M1006.625 149.7c2.442 1.896 4.725 1.766 7.283 0-.407-3.378 4.03-10.626 4.03-10.626l-4.96 4.513-2.48-7.86-2.943 7.132-3.72-4.076s3.156 6.888 2.79 10.917m-.055-2.606c2.442 1.897 5.029 1.79 7.586.024" style="fill:url(#y);fill-opacity:1;stroke:#060401;stroke-width:.757213;stroke-linecap:round;stroke-linejoin:round;stroke-dasharray:none;stroke-dashoffset:0;stroke-opacity:1"/><ellipse cx="1010.552" cy="135.002" rx="1.58" ry="1.62" style="fill:url(#z);fill-opacity:1;stroke:#060401;stroke-width:.757213;stroke-linecap:round;stroke-linejoin:round;stroke-dasharray:none;stroke-dashoffset:0;stroke-opacity:1"/><ellipse cx="1017.875" cy="139.073" rx="1.278" ry="1.31" style="fill:url(#A);fill-opacity:1;stroke:#060401;stroke-width:.757213;stroke-linecap:round;stroke-linejoin:round;stroke-dasharray:none;stroke-dashoffset:0;stroke-opacity:1"/><ellipse cx="1003.598" cy="138.368" rx="1.278" ry="1.31" style="fill:url(#B);fill-opacity:1;stroke:#060401;stroke-width:.757213;stroke-linecap:round;stroke-linejoin:round;stroke-dasharray:none;stroke-dashoffset:0;stroke-opacity:1"/></g><path d="M27.19 125.456q.005.052-.026.097-.028.045-.082.06l-1.352.35-.017.003q-.049.006-.093-.02-.045-.025-.06-.076-.002-.002-.033-.08-.028-.077-.09-.206t-.162-.298q-.097-.172-.235-.361-.136-.19-.316-.386-.178-.196-.404-.378-.077.075-.138.13l-.098.088.191 1.43.207-.008.208-.007q.055.002.096.04.043.036.049.09.008.07-.038.11-.045.042-.091.047l-.02.002q-.207.002-.422.015-.212.013-.429.038-.219.025-.436.06-.216.037-.432.084l-.017.002q-.063.007-.108-.03-.044-.04-.05-.094-.006-.055.025-.1.033-.045.087-.06.112-.02.217-.041l.212-.04-.475-3.361-.21.012-.207.007q-.055.001-.098-.035-.04-.037-.047-.092-.007-.066.035-.11.042-.046.094-.052l.01-.001q.167-.002.332-.016.165-.013.335-.032.279-.032.56-.08.28-.052.562-.126l.02-.002q.062-.007.108.032.046.036.053.096.005.05-.026.095-.028.045-.082.06-.12.03-.237.057l-.233.049.211 1.61q.12-.117.279-.282.161-.168.33-.39.171-.225.331-.501.162-.28.282-.615l-.386.044q-.06.007-.108-.026-.049-.036-.056-.097-.007-.063.032-.109.04-.046.1-.053l1.226-.14q.06-.007.106.03.049.036.056.099.007.06-.032.106-.037.043-.097.05l-.52.06q-.064.198-.141.37-.075.17-.16.324-.086.151-.18.29-.096.138-.194.274.066.045.173.13.106.083.237.206.13.124.275.29.146.164.292.375t.28.467q.138.257.248.56l.6-.16.016-.002q.063-.007.11.032.046.04.052.097zm3.63-.142q0 .055-.04.098-.04.04-.095.045l-.01.001q-.134 0-.258.006-.121.004-.24.016-.172.017-.33.049-.155.03-.303.069-.005 0-.013.004l-.011.004q-.058.006-.106-.034-.048-.043-.054-.097-.005-.05.024-.094.032-.045.08-.058.113-.033.227-.056.117-.025.24-.048.016-.088.029-.236t.018-.317q.008-.17.005-.341 0-.172-.013-.306-.014-.14-.047-.303-.03-.163-.099-.3-.066-.14-.177-.227-.108-.086-.276-.07-.189.02-.341.128-.153.11-.257.267-.1.154-.152.333-.05.18-.033.339v.005l.114 1.207h.097q.047-.001.094.003.056 0 .095.038.043.034.048.09.006.06-.036.108-.04.048-.095.054-.01 0-.017-.007h-.34q-.172 0-.362.019-.17.017-.357.052-.185.037-.395.097-.01.007-.027.008-.063.006-.106-.037t-.048-.097q-.005-.05.02-.094.027-.044.078-.057.1-.032.192-.052.092-.023.184-.04l-.207-2.096q-.173.009-.292.01-.117-.002-.131-.006-.056 0-.095-.038-.037-.038-.043-.093-.006-.066.037-.109.042-.045.094-.05.011-.001.017.004l.064-.001.158-.002q.1-.002.223-.008.124-.007.256-.02.131-.013.257-.03.125-.021.227-.056.006-.001.01-.004.009-.004.017-.004.063-.006.109.036.048.04.054.094l.027.283q.136-.25.344-.389.21-.142.49-.17.165-.016.291.03.129.042.226.13.1.087.168.207.07.118.116.252.049.134.074.275.028.139.04.262.013.137.016.303.002.163-.004.327-.003.164-.016.312-.01.148-.025.252l.215-.01q.113-.006.23-.003.063-.001.1.045.041.043.046.098m2.026-.029h-.014q-.006-.003-.014-.002-.227-.02-.43-.017-.202 0-.399.022-.2.021-.395.065-.195.04-.41.108-.008.001-.013.004t-.013.004q-.063.007-.11-.035-.043-.043-.049-.097-.005-.05.02-.094.029-.045.077-.058.094-.033.189-.054l.188-.048-.228-2.1q-.174.011-.293.01l-.133.001q-.056-.002-.096-.04-.037-.037-.043-.091-.008-.069.038-.11.045-.04.092-.046l.016-.002.064.001q.061 0 .158-.003l.224-.008q.124-.008.255-.022.132-.015.257-.036.125-.025.226-.061l.03-.003q.063-.007.11.032.045.037.05.092l.243 2.28.195.007q.1 0 .204.011.053.003.09.04.037.038.043.087.007.063-.036.11-.041.048-.093.054zm-.79-3.56q.011.102-.017.197-.03.092-.09.165t-.145.12-.185.06q-.102.01-.196-.018-.092-.029-.165-.087-.073-.059-.12-.142-.049-.087-.06-.188t.018-.193q.028-.095.087-.168t.142-.12q.086-.049.188-.06.1-.01.193.018.094.029.167.087.076.059.124.145.048.083.06.185m3.051.526q.007.055-.027.103-.03.045-.084.057-.177.035-.35.066-.175.032-.352.059l.227 1.915q.006.055.033.1.03.043.07.071.042.029.091.042t.098.008q.074-.009.116-.052.044-.047.07-.108.026-.064.038-.132.014-.069.021-.122.003-.05.04-.086.037-.037.087-.043.063-.007.107.037.046.042.052.091l.004.03q-.037.374-.246.601-.21.225-.551.265-.156.018-.325-.003-.17-.022-.317-.118-.144-.097-.253-.284-.108-.19-.146-.507l-.188-1.596-.251.013q-.124.006-.251.01-.056-.001-.1-.038-.04-.037-.046-.091-.008-.063.034-.107.045-.044.094-.05l.011-.001.238-.012.237-.011-.11-.93q-.005-.047.02-.089.025-.045.07-.064l.663-.264q.008-.006.018-.008.011-.004.02-.005.062-.007.106.035.047.041.053.096l.132 1.12.335-.054q.172-.031.342-.065l.011-.001q.06-.007.107.031.046.037.052.091zm2.524-.32q.007.054-.025.103-.03.045-.085.058l-.35.07q-.173.033-.35.06l.244 1.915q.007.054.034.098.03.043.07.072.043.027.092.04t.098.008q.074-.01.115-.054.044-.047.07-.109.025-.064.036-.132.013-.069.02-.122.002-.05.04-.086.036-.038.086-.044.063-.008.107.036.047.042.053.09l.004.03q-.033.375-.24.604-.207.226-.549.27-.156.02-.325 0-.17-.02-.318-.116-.145-.095-.255-.281-.11-.19-.15-.506l-.203-1.594-.251.015-.251.013q-.056-.001-.1-.038-.04-.036-.047-.091-.008-.063.033-.107.045-.045.094-.05l.01-.002.238-.013.237-.014-.118-.93q-.006-.046.02-.088.024-.045.069-.064l.66-.27q.008-.008.018-.009.011-.004.02-.005.062-.008.106.034.047.041.054.096l.142 1.118.335-.056q.17-.033.341-.069h.011q.06-.009.107.03.046.036.053.09zm2.464 2.443h-.014q-.005-.003-.014-.001-.227-.014-.429-.006-.202.005-.399.031-.2.027-.393.075-.194.046-.407.119-.008.001-.013.005-.005.003-.013.005-.063.008-.11-.033-.045-.04-.052-.095-.007-.05.018-.095.027-.045.075-.06.093-.035.187-.058l.188-.053-.282-2.093q-.173.015-.293.017-.119.002-.133.004-.055 0-.096-.037-.039-.036-.046-.09-.01-.07.035-.111.045-.042.091-.049l.016-.002h.064l.158-.007.223-.013q.124-.011.255-.029t.256-.043q.124-.028.224-.066l.03-.004q.063-.008.11.03.047.035.054.09l.3 2.273q.098 0 .195.002.1-.002.204.006.053 0 .091.038.039.036.045.085.009.063-.032.11-.04.05-.093.057zm-.88-3.538q.014.1-.012.196-.026.093-.086.167-.056.075-.141.125-.083.05-.184.064t-.196-.013q-.093-.026-.167-.083t-.124-.139q-.05-.085-.064-.186t.013-.194q.026-.095.082-.17.057-.074.14-.124t.185-.064q.101-.013.194.013.095.026.17.083.077.057.127.141t.064.184m4.745 2.797q.002.055-.036.1-.038.042-.093.05l-.01.001q-.134.005-.257.017-.122.01-.239.026-.172.025-.328.063-.153.036-.3.082-.005 0-.013.005-.005.004-.01.004-.058.008-.108-.03-.05-.04-.058-.094-.007-.049.02-.095.03-.046.078-.06.111-.039.224-.066.116-.03.237-.059.012-.088.019-.237.007-.148.005-.318 0-.17-.01-.34-.007-.172-.027-.306-.02-.139-.06-.3-.036-.162-.11-.296-.073-.138-.188-.219-.112-.081-.278-.057-.188.026-.336.142t-.245.277q-.094.158-.138.34-.04.181-.018.34v.004l.166 1.202.097-.003q.047-.004.095-.002.055-.002.096.033.044.033.052.088.008.06-.032.11-.037.05-.092.058-.01.002-.018-.006l-.34.015q-.171.008-.36.034-.169.024-.355.068-.182.045-.39.114-.01.007-.026.009-.063.009-.108-.032t-.053-.096q-.007-.049.018-.094t.075-.061q.097-.036.189-.06.09-.027.182-.049l-.297-2.084q-.173.016-.292.022-.116.003-.13 0-.056.001-.098-.034-.038-.037-.046-.091-.01-.066.032-.11.04-.048.092-.055.011-.002.017.003l.064-.003.157-.01q.1-.005.223-.017.124-.012.255-.031.13-.019.255-.042.125-.026.225-.065l.01-.004q.008-.004.016-.005.063-.01.11.031.05.038.058.092l.04.281q.126-.254.327-.403.204-.151.482-.19.164-.024.292.016.13.037.232.12t.176.2q.075.115.127.247.055.131.086.272.033.137.05.26.02.136.03.302.01.163.01.327.004.163-.002.312-.004.148-.014.253l.214-.02q.113-.01.23-.013.063-.003.102.04.042.042.05.097zm2.085-1.759-.044-.291q-.02-.14-.045-.261-.018-.03-.07-.098-.05-.07-.146-.134-.094-.067-.239-.107-.146-.042-.354-.019-.275.042-.453.177-.177.133-.276.332-.098.199-.119.447t.02.516q.032.198.112.376.082.177.207.306.128.125.291.19.165.061.364.031.145-.021.26-.106.118-.087.208-.212.09-.128.15-.28.064-.151.099-.307t.043-.302-.008-.258m1.133-1.302q.008.052-.021.098-.027.043-.075.058-.05.02-.106.036l-.118.029q.012.084.038.234.025.147.056.351l.052.366.053.407q.027.213.05.441.025.225.043.456.029.336-.043.656-.071.32-.236.58-.164.258-.419.436t-.59.228q-.229.035-.44-.012-.207-.046-.372-.158-.164-.112-.273-.282t-.142-.383v-.005q-.01-.06.025-.11.034-.047.097-.056.06-.01.104.026.048.037.057.097.025.17.11.29.086.124.209.2.126.079.275.106.15.028.302.005.147-.022.241-.136.095-.115.14-.333.045-.216.04-.545-.002-.325-.05-.772-.043.137-.121.263-.08.124-.19.224-.107.1-.242.167-.132.068-.287.091-.262.04-.482-.036-.22-.075-.392-.233-.17-.159-.281-.385-.112-.225-.154-.486-.05-.327-.012-.631.037-.307.168-.55.133-.243.362-.408.229-.166.561-.216.241-.028.424.017.185.045.323.127l-.01-.03-.001-.004q-.009-.057.031-.108t.094-.059h.006l.046-.005.113-.011.162-.019q.093-.011.188-.025.139-.021.272-.047.135-.026.225-.056.005-.006.01-.007l.014-.002q.057-.01.108.03.05.038.058.092zm6.069-.247q.044.277.018.547-.024.266-.11.514-.086.249-.226.47-.138.217-.322.392.059.121.134.224.078.104.17.176.096.074.202.107t.22.015q.05-.008.099-.03.05-.019.091-.056.014-.017.032-.025.021-.009.038-.012.054-.009.104.023.052.033.063.096.012.079-.046.133-.071.061-.156.103t-.178.057q-.158.025-.304-.013t-.274-.123-.238-.213q-.107-.125-.19-.277-.17.117-.362.195-.188.08-.4.115-.27.043-.535.008-.262-.033-.501-.134-.24-.104-.453-.265-.211-.164-.376-.375-.166-.213-.28-.471t-.16-.547-.02-.569q.028-.28.118-.533.09-.254.24-.474.15-.222.347-.393.195-.174.433-.288.241-.117.51-.16.286-.046.555-.006.272.04.513.149.243.109.452.279t.37.384q.162.214.269.462.11.248.153.514zm-.283.045q-.03-.185-.112-.378-.082-.196-.202-.375-.119-.182-.272-.336-.151-.157-.322-.264-.168-.11-.35-.158-.18-.052-.357-.024-.24.039-.422.14-.182.103-.314.25-.13.143-.215.327t-.128.387q-.04.199-.043.411-.002.21.03.411.036.22.096.437.062.216.155.41.095.192.219.353.126.159.288.267.162.105.362.148.202.043.444.004.123-.02.232-.068.112-.052.212-.123-.098-.197-.238-.286t-.336-.057q-.063.01-.118.03-.053.02-.097.04-.05.022-.093.049-.03.021-.057.026-.052.008-.104-.025-.054-.036-.064-.099-.006-.038.01-.077t.051-.064l.036-.022q.035-.023.092-.049.058-.026.134-.052t.164-.04q.272-.044.483.07.214.113.36.358.136-.156.239-.351.105-.196.168-.41t.081-.434q.02-.221-.013-.426zm4.168-1.45q.008.05-.018.096-.024.045-.077.062-.092.037-.185.065-.094.026-.184.054l.31 2.261q.096-.015.195-.024.101-.014.199-.015.06-.004.1.035.042.035.05.084.01.068-.03.113-.037.048-.086.056l-.017.003q-.114.004-.223.015-.107.012-.21.028-.189.03-.37.078-.18.047-.353.116l-.03.005q-.058.01-.108-.027-.05-.034-.059-.089v-.005l-.062-.5q-.123.34-.325.542-.203.199-.484.243-.177.028-.322-.008-.142-.036-.26-.115-.117-.083-.207-.197-.088-.117-.154-.249-.063-.135-.105-.276t-.062-.272q-.056-.357-.042-.71.017-.355.108-.682l-.492.064q-.061.004-.108-.028-.044-.035-.054-.095-.008-.054.026-.101.034-.05.097-.06l.721-.097q.061 0 .106.034.047.031.056.089.003.021-.002.042-.003.017-.009.035-.043.06-.073.17t-.047.25q-.018.137-.024.291-.007.152-.007.297 0 .142.008.264.008.121.02.198.027.169.081.338.057.167.15.298.093.127.227.198.133.069.318.04.166-.026.301-.145.134-.122.226-.32.094-.2.144-.472.051-.273.055-.606l-.14-1.1q-.009-.06.032-.102.04-.045.092-.054l.016-.003q.095 0 .191-.01.096-.012.2-.029.165-.026.343-.07.18-.045.37-.114l.01-.004q.005-.004.01-.004.063-.01.111.03.048.037.056.091zm2.47 1.44q-.012-.045-.021-.094-.01-.05-.017-.101l-.1.014q-.11.015-.258.052-.145.036-.299.093-.153.057-.3.139-.149.078-.26.18-.112.098-.173.22-.058.123-.039.267.01.077.054.127.045.049.105.077.062.025.132.032.07.004.133-.004.194-.026.356-.124.164-.1.295-.24.131-.143.228-.31.097-.165.164-.328zm1.437.767h-.011q-.047.002-.096.009l-.096.013q-.257.035-.49.1-.23.065-.458.165-.009.001-.016.005t-.022.006q-.063.01-.11-.035-.045-.04-.052-.09l-.003-.022v-.111q-.002-.108-.014-.299-.1.147-.217.28-.116.13-.252.235-.134.102-.283.17-.15.07-.316.092-.13.018-.26-.006-.127-.021-.233-.082-.103-.061-.174-.157-.07-.099-.087-.23-.028-.205.038-.372.069-.168.198-.303.129-.137.301-.238.175-.105.36-.177.184-.076.362-.12.177-.046.317-.065l.065-.009q-.023-.166-.104-.316-.08-.151-.202-.26-.12-.108-.276-.162-.155-.057-.33-.033-.128.018-.24.108-.114.088-.194.213t-.122.272q-.038.147-.02.278.007.055-.034.1-.039.041-.094.048-.06.008-.11-.03-.05-.04-.057-.094-.018-.131.01-.28.026-.15.095-.3.071-.15.18-.29.112-.141.26-.256.15-.118.337-.199.187-.08.405-.11.306-.042.535.024.231.066.398.21.17.143.284.348.114.204.19.438.077.235.122.482.048.246.078.473.016.115.024.197l.016.137.082-.014q.043-.01.084-.014.047-.006.096-.01.052-.005.102-.012.06-.003.101.034.044.035.052.096.008.057-.027.106-.032.05-.092.057zm2.612-1.637q-.102.01-.196-.019-.092-.03-.164-.089t-.12-.142q-.048-.087-.058-.188t.019-.194q.03-.094.088-.166.059-.076.143-.123.086-.05.188-.06.013-.002.025 0h.027q-.077-.048-.175-.066-.097-.02-.22-.008-.156.016-.265.094-.109.074-.18.182-.07.104-.108.224-.038.117-.058.222-.017.101-.02.174t0 .083l.118 1.218q.097-.002.195.005l.203.012q.054.008.09.047.038.035.043.087.006.06-.036.106-.043.043-.095.048l-.028.003q-.226-.018-.428-.02-.203 0-.4.019-.197.02-.393.062-.195.042-.413.106l-.027.003q-.063.006-.106-.03-.043-.04-.048-.096-.006-.052.02-.093.027-.044.077-.063l.189-.053q.094-.026.187-.044l-.209-2.042q-.174.009-.293.008-.12-.002-.133-.006-.056 0-.095-.035-.037-.038-.043-.093-.007-.068.036-.111.045-.044.094-.049l.02-.002q.003.002.064.005l.158-.002q.096-.002.22-.009.127-.007.256-.02.131-.014.257-.035.125-.021.23-.054.005-.006.027-.008.063-.006.108.036.046.04.052.095l.02.197q.1-.177.268-.302.17-.128.417-.153.187-.014.346.031.16.042.28.135.123.09.198.23.078.135.096.313.011.113-.014.22-.025.109-.082.197-.058.087-.149.146-.088.056-.203.068zm3.031-1.518q.003.055-.033.102-.033.043-.088.052-.178.024-.353.045-.176.02-.354.037l.11 1.926q.004.055.028.1.028.046.065.077.04.03.089.047t.097.014q.074-.004.119-.046.047-.044.077-.104.03-.062.045-.13.018-.066.029-.12.005-.05.045-.082.04-.036.089-.038.063-.004.104.043.044.045.047.094l.002.03q-.059.371-.281.585-.223.212-.567.232-.156.009-.324-.023-.167-.032-.309-.137-.138-.105-.235-.298-.097-.196-.115-.515l-.092-1.605-.252-.002q-.124 0-.251-.005-.056-.005-.097-.044-.038-.039-.041-.094-.004-.063.04-.105.048-.04.098-.044h.01q.122 0 .238.003.12 0 .238.003l-.054-.936q-.003-.047.025-.087.028-.043.074-.06l.678-.223q.008-.006.019-.007l.019-.004q.063-.004.104.04.044.045.047.1l.065 1.125q.168-.015.338-.033.172-.02.345-.045h.011q.06-.003.104.038.044.039.047.094zm2.974 1.207v-.047q.001-.207-.042-.383t-.14-.312q-.093-.138-.242-.227-.148-.088-.358-.12-.146.017-.254.08-.107.063-.185.156-.074.091-.124.207t-.081.24q-.028.12-.042.244-.014.122-.017.23l.11.03q.069.017.154.033.085.014.185.026.102.009.212.009.234 0 .438-.043.207-.044.386-.123zm.281.108q-.008.072-.077.124-.07.052-.174.093-.105.039-.232.066-.124.024-.245.04-.122.016-.224.024-.102.005-.16.005-.2 0-.372-.028-.168-.028-.278-.06.016.172.063.337.046.166.134.298.088.13.22.213.132.08.32.081.068 0 .156-.016.089-.019.174-.052.086-.035.157-.082.072-.05.114-.11.047-.055.113-.055.058 0 .102.048.044.044.044.099 0 .058-.037.09-.066.103-.185.174-.118.071-.256.115-.138.046-.279.065-.14.022-.256.021-.331 0-.615-.12-.283-.117-.492-.321t-.33-.48q-.117-.277-.116-.596.001-.35.107-.623.105-.275.299-.462.193-.19.469-.285.276-.099.62-.098.326.015.56.112.236.098.387.269t.222.414q.074.24.073.54 0 .07-.003.11zm3.046.23q-.102-.01-.189-.056-.084-.047-.143-.119-.06-.072-.09-.163-.03-.095-.02-.196t.056-.186q.047-.087.12-.146.072-.063.163-.093.095-.032.196-.023.014.001.024.005.014.004.028.005-.067-.061-.16-.098-.09-.039-.214-.05-.156-.015-.278.04-.12.052-.213.143-.088.088-.149.199-.06.108-.1.206-.036.096-.054.167-.015.07-.016.081l-.121 1.218q.095.017.19.043l.197.052q.05.018.08.063.029.041.024.093-.006.06-.056.097-.05.034-.103.03l-.027-.004q-.218-.062-.417-.103t-.395-.06-.398-.015-.425.023l-.028-.003q-.063-.006-.097-.05-.035-.048-.03-.103.005-.052.04-.088.033-.038.087-.047l.195-.014q.098-.007.192-.007l.193-2.045q-.172-.024-.288-.049-.117-.025-.13-.032-.055-.01-.087-.052-.029-.045-.023-.1.006-.068.056-.102.053-.034.103-.029l.02.002q.002.003.061.017l.155.029q.095.017.218.034.126.018.255.03.132.012.259.016t.236-.008q.006-.005.028-.003.063.006.1.057.037.047.031.102l-.018.198q.133-.154.322-.244.191-.092.438-.069.186.023.334.098.148.072.248.187.103.112.15.263.05.149.032.327-.01.113-.056.214-.045.1-.12.177-.072.073-.173.113-.098.038-.213.027zm2.22 1.814-.027-.005q-.105-.04-.191-.07t-.167-.051q-.08-.024-.164-.043-.08-.018-.175-.036-.192-.036-.377-.055-.184-.02-.408-.021l-.027-.005q-.068-.013-.095-.063-.027-.047-.016-.107.01-.048.046-.08.037-.033.091-.037.104.003.186.01.084.005.177.014l.629-3.306q-.168-.046-.242-.07-.07-.028-.084-.03-.053-.02-.08-.067-.025-.046-.015-.098.013-.07.068-.096.056-.029.102-.02l.017.003.047.017.121.04q.08.024.187.053.11.026.24.05.13.026.256.041.126.013.233.01.01-.003.031.001.063.012.094.066.033.05.022.105l-.667 3.483.073.026q.032.009.058.02.03.007.059.019.031.009.079.026.049.023.074.067t.016.093q-.012.062-.066.094-.05.033-.105.022zm4.356-1.687q-.016.053-.065.081-.046.03-.1.019-.053-.007-.105-.018-.048-.012-.102-.022l-.117.192q-.072.122-.169.28l-.21.342-.23.376-.24.38q-.121.187-.233.355-.108.166-.204.3-.092.134-.162.22-.187.225-.412.424-.223.203-.477.336-.25.133-.526.176-.276.046-.563-.042-.18-.055-.33-.156-.152-.098-.249-.234t-.13-.302q-.033-.163.024-.35.036-.118.106-.227.067-.106.161-.178.091-.07.204-.1.111-.026.238.013.097.03.17.092.076.064.12.146.044.083.055.178.01.099-.02.196-.029.098-.091.17-.064.076-.146.12-.084.047-.182.057-.096.012-.193-.018-.045-.014-.082-.034t-.07-.044q.037.095.103.164.064.071.156.1.116.035.244-.005.126-.036.252-.119.129-.081.25-.194.12-.113.226-.231.107-.117.192-.224l.137-.177q.039-.051.077-.109l.086-.123q-.169-.484-.238-.88-.07-.396-.083-.702-.01-.306.017-.52.031-.215.062-.335-.1-.03-.202-.065-.098-.036-.194-.08-.052-.02-.077-.069-.022-.05-.006-.103.017-.058.072-.084.057-.029.11-.013l.016.005q.088.042.181.076l.197.063q.153.047.312.084.162.035.334.058.012-.002.022.001.06.019.087.076.028.057.012.11-.014.047-.06.076-.044.03-.1.022l-.22-.035q-.103-.02-.205-.043-.026.096-.052.275-.024.18-.019.438.008.26.058.594.053.336.181.747.151-.23.31-.485.161-.256.306-.494.147-.237.266-.437l.193-.322q-.05-.021-.108-.042-.054-.022-.107-.047-.05-.02-.076-.072-.022-.05-.006-.102.02-.064.076-.087.057-.026.107-.01l.015.004q.157.071.316.128.16.058.327.109.163.05.33.092.168.042.34.072l.016.005q.06.018.087.075.026.055.01.107" aria-label="Knitting Quarterly" style="font-size:5.64444px;font-family:Ribeye;-inkscape-font-specification:&quot;Ribeye, Normal&quot;;fill-opacity:.976471;stroke:#000;stroke-width:.054;stroke-linecap:round;stroke-linejoin:round" transform="translate(5.114 -54.546)"/></svg>